<svg xmlns="http://www.w3.org/2000/svg" viewBox="0 0 355.28 366.18"><defs><style>.cls-7{fill:#032248}.cls-3{letter-spacing:.03em}</style></defs><g id="Layer_2" data-name="Layer 2"><g id="Layer_3" data-name="Layer 3"><text transform="translate(0 302.06)" fill="#032248" font-size="60" font-family="CarterOne,Carter One" letter-spacing="0">S<tspan x="31.97" y="0" letter-spacing=".02em">t</tspan><tspan class="cls-3" x="60.39" y="0">ea</tspan><tspan x="133.41" y="0">k</tspan><tspan x="170.27" y="0" letter-spacing=".01em">H</tspan><tspan class="cls-3" x="214.63" y="0">ouse</tspan></text><text transform="translate(82.04 356.18)" font-size="40" font-family="Lato-Italic,Lato" font-style="italic" letter-spacing=".05em" fill="#032248">Grill &amp; Bar</text><path class="cls-7" d="M116.64 45.5s130.49 130.14 131 131c3 5-7 17-15 11l-45-48-9-1s-87.56-77.44-70-95c2-2 6 0 8 2zm31.5 85.5l15 15-40.5 40.5c-9 9-23-7-15-15zm40.5-60.5l30-31c5-5 18 6 12 12l-27 27c-3 3-4 7-2 9l4 4c3 3 7 1 10-2l27-27c5-5 17 7 12 12l-32 31c-6 6-17 6-24 0l-9.5-9.5c-6-6-6.5-18.5-.5-25.5z"/><path class="cls-7" d="M177.64 231a115.5 115.5 0 11115.5-115.5A115.63 115.63 0 01177.64 231zm0-226a110.5 110.5 0 10110.5 110.5A110.63 110.63 0 00177.64 5z"/></g></g></svg>